# xmcd
# 
# Track frame offsets:
#     150
#     25157
#     36465
#     52265
#     65250
#     80120
#     97122
#     124482
#     142312
#     154425
#     174375
#     202242
#     216007
#     235102
#     251247
# 
# Disc length: 3517
# 
# Revision: 16
# Processed by: cddbd v1.5.2PL0 Copyright (c) Steve Scherf et al.
# Submitted via: fre:ac v1.0.27
# 
DISCID=f30dbb0f
DTITLE=Renaud - Best Of
DYEAR=2000
DGENRE=Chansons
TTITLE0=Hexagone
TTITLE1=Laisse béton
TTITLE2=Ma gonzesse
TTITLE3=Chanson pour Pierrot
TTITLE4=Marche à  l'ombre
TTITLE5=Les aventures de Gérard Lambert
TTITLE6=Dans mon H.L.M.
TTITLE7=Banlieue rouge
TTITLE8=Manu
TTITLE9=Dès que le vent soufflera
TTITLE10=Morgane de toi (Amoureux de toi)
TTITLE11=En cloque
TTITLE12=Miss Maggie
TTITLE13=La pêche à  la ligne
TTITLE14=Mistral gagnant
EXTD=YEAR: 2000
EXTT0=
EXTT1=
EXTT2=
EXTT3=
EXTT4=
EXTT5=
EXTT6=
EXTT7=
EXTT8=
EXTT9=
EXTT10=
EXTT11=
EXTT12=
EXTT13=
EXTT14=
PLAYORDER=
